<?xml version="1.0" standalone="no"?>
<!DOCTYPE svg PUBLIC "-//W3C//DTD SVG 20010904//EN"
 "http://www.w3.org/TR/2001/REC-SVG-20010904/DTD/svg10.dtd">
<svg version="1.0" xmlns="http://www.w3.org/2000/svg"
 width="259.000000pt" height="90.000000pt" viewBox="0 0 259.000000 90.000000"
 preserveAspectRatio="xMidYMid meet">

<g transform="translate(0.000000,90.000000) scale(0.100000,-0.100000)"
fill="#000000" stroke="none">
<path d="M537 756 c-3 -8 -50 -50 -104 -94 -111 -90 -244 -208 -256 -230 -20
-32 3 -16 88 60 50 44 112 99 139 122 l50 41 -26 -45 c-15 -25 -43 -54 -63
-66 -20 -12 -41 -27 -48 -34 -12 -13 -6 -12 42 8 11 4 13 1 6 -14 -14 -34 -18
-64 -8 -64 6 0 18 20 28 45 19 52 31 60 117 80 l63 15 -68 -5 -68 -4 22 32
c13 18 44 60 71 94 26 35 48 65 48 68 0 11 -28 4 -33 -9z"/>
<path d="M1363 607 c-56 -40 -114 -84 -128 -97 -44 -42 -18 -33 44 14 69 53
80 57 52 17 -39 -54 -18 -89 46 -75 21 4 47 8 58 10 11 1 45 8 75 17 30 8 58
13 63 10 4 -2 7 -17 7 -33 0 -16 4 -32 10 -35 5 -3 38 0 72 6 37 7 159 13 298
14 216 1 290 7 290 24 0 18 -546 -4 -627 -25 -19 -5 -22 -1 -25 28 -3 29 -7
33 -36 36 -19 2 -48 -2 -65 -8 -18 -7 -63 -14 -101 -17 l-68 -4 23 42 c13 23
51 66 84 95 33 30 53 54 45 54 -8 -1 -61 -33 -117 -73z"/>
<path d="M523 553 c-30 -12 -9 -19 42 -15 45 4 55 2 55 -11 0 -18 -60 -72 -89
-82 -26 -8 -28 -25 -3 -25 9 -1 -14 -17 -53 -36 -122 -62 -225 -153 -225 -198
0 -102 158 -58 302 84 42 42 80 88 83 103 11 42 -2 77 -27 77 l-21 0 20 23
c48 53 35 87 -31 86 -22 0 -47 -3 -53 -6z m93 -169 c-4 -15 -37 -57 -74 -94
-75 -75 -171 -130 -227 -130 -30 0 -35 3 -35 23 1 44 71 104 225 191 103 58
123 60 111 10z"/>
<path d="M1056 515 c-57 -43 -64 -64 -9 -28 25 17 25 17 19 -5 -10 -30 14 -38
51 -17 l28 16 -27 -4 c-33 -5 -37 12 -8 38 20 18 27 45 13 45 -5 0 -35 -21
-67 -45z"/>
<path d="M796 510 c-26 -17 -51 -28 -56 -25 -10 6 -55 -63 -46 -72 3 -3 25 12
50 35 45 42 106 79 106 64 0 -4 -13 -23 -30 -42 -47 -55 -33 -71 22 -25 40 34
106 67 118 60 6 -4 4 -18 -6 -37 -12 -23 -13 -29 -2 -26 18 6 39 53 32 72 -8
21 -26 20 -76 -4 -49 -24 -49 -24 -47 -7 6 45 -3 46 -65 7z"/>
<path d="M2326 483 c-12 -12 -6 -33 9 -33 8 0 15 6 15 14 0 17 -14 28 -24 19z"/>
</g>
</svg>
